<?xml version="1.0" encoding="UTF-8" standalone="no"?>
<svg
   width="128"
   height="128"
   aria-hidden="true"
   class="fWWlmf JzISke"
   viewBox="0 0 2512 2512"
   version="1.1"
   id="svg1"
   sodipodi:docname="icon.svg"
   xml:space="preserve"
   inkscape:version="1.4.2 (f4327f4, 2025-05-13)"
   xmlns:inkscape="http://www.inkscape.org/namespaces/inkscape"
   xmlns:sodipodi="http://sodipodi.sourceforge.net/DTD/sodipodi-0.dtd"
   xmlns="http://www.w3.org/2000/svg"
   xmlns:svg="http://www.w3.org/2000/svg"><defs
     id="defs1" /><sodipodi:namedview
     id="namedview1"
     pagecolor="#505050"
     bordercolor="#ffffff"
     borderopacity="1"
     inkscape:showpageshadow="0"
     inkscape:pageopacity="0"
     inkscape:pagecheckerboard="1"
     inkscape:deskcolor="#d1d1d1"
     inkscape:zoom="4"
     inkscape:cx="55.5"
     inkscape:cy="77.625"
     inkscape:window-width="1920"
     inkscape:window-height="1009"
     inkscape:window-x="-8"
     inkscape:window-y="-8"
     inkscape:window-maximized="1"
     inkscape:current-layer="svg1" /><path
     d="m 7.05405,1255.9999 c 0,688.6719 560.27738,1248.946 1248.95315,1248.946 688.6616,0 1248.939,-560.2741 1248.939,-1248.946 C 2504.9462,567.32821 1944.6688,7.05405 1256.0072,7.05405 567.33143,7.05405 7.05405,567.32821 7.05405,1255.9999 Z M 1256.0072,349.93681 c 499.6122,0 906.0825,406.46788 906.0825,906.07719 0,187.9761 -57.5754,362.747 -155.9657,507.6511 L 748.33914,505.90163 C 893.25817,407.51188 1068.03,349.93681 1256.0072,349.93681 Z m 507.6539,1656.17559 c -144.9191,98.3898 -319.6768,155.9648 -507.6539,155.9648 -499.6123,0 -906.06841,-406.4678 -906.06841,-906.0773 0,-187.976 57.5754,-362.73273 155.95161,-507.65092 z"
     id="path1-4-4"
     style="display:inline;opacity:1;fill:#d00000;stroke:#d00000;stroke-width:14.1081"
     inkscape:label="disabled-bg" /><path
     fill="#7aacff"
     d="m 1255.9999,2198 c 0,-130.308 -25.1199,-252.772 -75.36,-367.38 C 1131.968,1716.012 1065.2439,1616.3161 980.464,1531.5361 895.684,1446.756 795.992,1380.032 681.38,1331.36 566.772,1281.12 444.312,1256 314,1256 c 130.312,0 252.772,-24.3359 367.38,-73.004 114.612,-50.24 214.304,-117.752 299.084,-202.532 84.7799,-84.78 151.504,-184.476 200.1759,-299.08399 50.2401,-114.608 75.36,-237.068 75.36,-367.38001 0,130.31201 24.3361,252.77201 73.004,367.38001 C 1379.244,795.988 1446.756,895.684 1531.536,980.464 c 84.7799,84.78 184.476,152.292 299.084,202.532 114.6079,48.6681 237.072,73.004 367.38,73.004 -130.308,0 -252.772,25.12 -367.38,75.36 -114.608,48.672 -214.3041,115.396 -299.084,200.1761 -84.78,84.78 -152.292,184.4759 -202.532,299.0839 -48.668,114.608 -73.0041,237.072 -73.0041,367.38 z"
     id="path1"
     style="stroke-width:4.00001;opacity:1"
     inkscape:label="gemini" /><path
     d="m 7.0539093,1256.0001 c 0,688.6719 560.2773807,1248.946 1248.9531907,1248.946 688.6616,0 1248.939,-560.2741 1248.939,-1248.946 C 2504.9461,567.32837 1944.6687,7.0542108 1256.0071,7.0542108 567.33129,7.0542108 7.0539093,567.32837 7.0539093,1256.0001 Z M 1256.0071,349.93697 c 499.6122,0 906.0825,406.46788 906.0825,906.07723 0,187.9761 -57.5754,362.747 -155.9657,507.6511 L 748.339,505.90179 C 893.25803,407.51204 1068.0299,349.93697 1256.0071,349.93697 Z M 1763.661,2006.1126 c -144.9191,98.3898 -319.6768,155.9648 -507.6539,155.9648 -499.61234,0 -906.06845,-406.4678 -906.06845,-906.0773 0,-187.976 57.5754,-362.73277 155.95161,-507.65096 z"
     id="path1-4"
     style="display:inline;opacity:0.5;fill:#d00000;stroke:#d00000;stroke-width:14.1081"
     inkscape:label="disabled" /></svg>
